<svg xmlns="http://www.w3.org/2000/svg" width="21" height="21" viewBox="0 0 21 21" fill="none">
  <g clip-path="url(#clip0_69_3287)">
    <path d="M3.82933 21H17.1723H18.3073H21.0006V18.3063V17.6161V3.38399V2.69324V0H18.3073H17.1723H3.82933H2.69434H0.000823975V2.69324V3.38422V17.616V18.3063V21H2.69407H3.82933V21ZM14.3563 3.28109C14.3563 3.02582 14.4472 2.80538 14.6298 2.61775C14.8119 2.43136 15.035 2.3379 15.2997 2.3379H17.6786C17.9428 2.3379 18.1661 2.43132 18.3485 2.61775C18.5307 2.80511 18.622 3.02582 18.622 3.28109V5.53693C18.622 5.80117 18.5307 6.02493 18.3485 6.20664C18.1661 6.38928 17.9428 6.48012 17.6786 6.48012H15.2995C15.035 6.48012 14.8117 6.38928 14.6296 6.20664C14.4471 6.02497 14.3561 5.80117 14.3561 5.53693V3.28109H14.3563ZM13.5016 8.37238C14.3263 9.16981 14.7388 10.1336 14.7388 11.2636C14.7388 12.3942 14.3263 13.3581 13.5016 14.1551C12.6765 14.953 11.6808 15.3514 10.5143 15.3514C9.35659 15.3514 8.36562 14.953 7.54075 14.1551C6.71561 13.3584 6.30352 12.3944 6.30352 11.2636C6.30352 10.1336 6.71584 9.16957 7.54075 8.37238C8.36562 7.57491 9.35682 7.17608 10.5143 7.17608C11.681 7.17608 12.6765 7.57518 13.5016 8.37238ZM5.64637 3.28109C5.64637 3.02582 5.7372 2.80538 5.91984 2.61775C6.10198 2.43136 6.32532 2.3379 6.58979 2.3379H7.09059C7.35483 2.3379 7.57813 2.43132 7.76054 2.61775C7.94291 2.80511 8.03401 3.02582 8.03401 3.28109V5.53693C8.03401 5.80117 7.94294 6.02493 7.76054 6.20664C7.57813 6.38928 7.35483 6.48012 7.09059 6.48012H6.58979C6.32532 6.48012 6.10198 6.38928 5.91984 6.20664C5.73747 6.02497 5.64637 5.80117 5.64637 5.53693V3.28109ZM2.33876 3.28109C2.33876 3.02582 2.42983 2.80538 2.61224 2.61775C2.79437 2.43136 3.01748 2.3379 3.28218 2.3379H3.78298C4.04722 2.3379 4.27052 2.43132 4.45293 2.61775C4.6353 2.80511 4.72641 3.02582 4.72641 3.28109V5.53693C4.72641 5.80117 4.63534 6.02493 4.45293 6.20664C4.27052 6.38928 4.04722 6.48012 3.78298 6.48012H3.28218C3.01772 6.48012 2.79437 6.38928 2.61224 6.20664C2.42987 6.02497 2.33876 5.80117 2.33876 5.53693V3.28109ZM2.33876 18.2826V9.42318H4.2665C4.0841 9.99731 3.99303 10.5949 3.99303 11.2144C3.99303 12.964 4.63082 14.4572 5.90705 15.6918C7.18305 16.9267 8.7188 17.5438 10.5145 17.5438C11.6992 17.5438 12.7929 17.2619 13.7957 16.6962C14.7982 16.1318 15.5912 15.3632 16.1745 14.3928C16.7577 13.422 17.0494 12.3625 17.0494 11.2142C17.0494 10.5946 16.9583 9.99708 16.7759 9.42295H18.6215V18.2827C18.6215 18.5197 18.5395 18.718 18.3755 18.8771C18.2116 19.0373 18.0155 19.1163 17.7877 19.1163H3.17264C2.93561 19.1163 2.73736 19.0373 2.57791 18.8771C2.41847 18.7179 2.33876 18.5197 2.33876 18.2826Z" fill="white"/>
  </g>
  <defs>
    <clipPath id="clip0_69_3287">
      <rect width="21" height="21" fill="white"/>
    </clipPath>
  </defs>
</svg>