<svg xmlns="http://www.w3.org/2000/svg" width="139" height="55" viewBox="0 0 139 55" fill="none">
                            <rect x="1" y="1" width="137" height="53" fill="white" stroke="#C4C4C4" stroke-width="2"/>
                            <path fill-rule="evenodd" clip-rule="evenodd" d="M42.6566 29.8324C42.6472 29.8506 42.629 29.8871 42.6201 29.9147C41.6337 31.778 39.697 33.0473 37.4867 33.0473C34.2807 33.0473 31.6504 30.3619 31.6504 27.0464C31.6504 23.7492 34.2807 21.0454 37.4867 21.0454C39.7064 21.0454 41.6519 22.3424 42.629 24.2332C42.6566 24.2697 42.6655 24.2879 42.6931 24.3427C42.7024 24.352 40.8298 25.7036 40.8115 25.6765C40.8022 25.64 40.7933 25.6124 40.7751 25.5942C40.2358 24.2514 38.9576 23.3563 37.4867 23.3839C35.5229 23.4021 33.9061 25.0278 33.9061 27.0464C33.9061 29.0832 35.5229 30.7276 37.4867 30.7276C38.9118 30.7276 40.154 29.8506 40.7199 28.6084C40.7475 28.5627 40.7568 28.5262 40.7751 28.4897L42.6566 29.8324Z" fill="#3F3F3F"/>
                            <path fill-rule="evenodd" clip-rule="evenodd" d="M45.0762 21.1553H47.323V25.3477H53.2238V21.1553H55.4889V32.819H53.2238V27.695H47.323V32.819H45.0762V21.1553Z" fill="#3F3F3F"/>
                            <path fill-rule="evenodd" clip-rule="evenodd" d="M87.2031 32.819V21.1553H95.3595V23.5115H89.4774V25.8406H94.912V28.1698H89.4774V30.4989H96.1906V32.819H87.2031Z" fill="#3F3F3F"/>
                            <path fill-rule="evenodd" clip-rule="evenodd" d="M99.377 32.819V21.1553H101.66V30.4989H107.999V32.819H99.377Z" fill="#3F3F3F"/>
                            <path fill-rule="evenodd" clip-rule="evenodd" d="M74.9455 32.819H74.8725H72.6621V21.1553H72.8263H75.8313L80.8276 28.1698V21.1553H83.0927V32.819H81.2842L74.9455 24.0231V32.819Z" fill="#3F3F3F"/>
                            <path fill-rule="evenodd" clip-rule="evenodd" d="M64.0657 23.5115L62.0747 28.1698H66.1483L64.0657 23.5115ZM61.0514 30.4989L60.0103 32.819H57.3066L62.4765 21.1553H65.6367L70.843 32.819H68.1393L67.0893 30.4989H61.0514Z" fill="#3F3F3F"/>
                        </svg>