<svg xmlns="http://www.w3.org/2000/svg" width="13" height="10" viewBox="0 0 13 10" fill="none">
  <path d="M13 1.15326C12.5135 1.36079 12.0041 1.49145 11.4795 1.53757C12.0117 1.23012 12.4222 0.738223 12.6199 0.15408C12.0953 0.438465 11.5328 0.64598 10.9474 0.768958C10.4076 0.269362 9.70058 -0.00733705 8.97076 0.000349035C7.54912 -0.0227092 6.37076 1.0995 6.30994 2.5368C6.29473 2.72126 6.31755 2.90569 6.38597 3.07478C4.28012 3.02098 2.2959 2.06793 0.912278 0.461542C0.661401 0.853533 0.532161 1.30702 0.532161 1.76819C0.547366 2.62903 1.00351 3.42066 1.74853 3.84339C1.33041 3.82033 0.912278 3.72044 0.532161 3.53598C0.554968 4.76575 1.45205 5.80338 2.66082 5.99553C2.44035 6.05702 2.20468 6.08775 1.97661 6.07238C1.79415 6.08006 1.6193 6.05702 1.44445 5.99553C1.80936 7.07159 2.82807 7.79407 3.95321 7.76332C2.98772 8.48582 1.80935 8.86241 0.608184 8.83935H0C1.24678 9.57721 2.66082 9.97689 4.10526 9.99226C8.1193 10.1767 11.5175 7.04081 11.7 2.98255C11.7 2.93644 11.7 2.89033 11.7076 2.84421V2.5368C12.1942 2.12943 12.6351 1.66823 13 1.15326Z" fill="black"/>
</svg>