<svg xmlns="http://www.w3.org/2000/svg" width="11" height="13" viewBox="0 0 11 13" fill="none">
  <path d="M5.91874 9.43848C5.29547 9.31706 4.7046 9.04185 4.21893 8.62903C3.89515 10.4098 3.49043 12.1096 2.19532 13C1.7906 10.3288 2.76192 8.30522 3.16664 6.11973C2.43814 4.90556 3.24758 2.39631 4.78553 2.96292C6.72819 3.69142 3.08569 7.57674 5.51402 8.06241C8.0233 8.54808 9.07557 3.69139 7.53763 2.0725C5.27119 -0.193938 0.981135 1.99156 1.4668 5.31028C1.62869 6.11973 2.43815 6.36257 1.7906 7.49579C0.333599 7.17201 -0.0711326 6.03878 0.00981179 4.50084C0.187889 2.15345 2.03342 0.275539 4.38081 0.0488948C7.13291 -0.274883 9.64219 1.02025 10.0469 3.61047C10.4516 6.52447 8.83274 9.68131 5.91874 9.43848Z" fill="black"/>
</svg>