<svg xmlns="http://www.w3.org/2000/svg" width="12" height="12" viewBox="0 0 12 12" fill="none">
  <path d="M5.99999 3.56201C4.65569 3.56201 3.56201 4.65565 3.56201 5.99996C3.56201 7.34426 4.65569 8.43795 5.99999 8.43795C7.3443 8.43795 8.43796 7.34426 8.43796 5.99996C8.43796 4.65565 7.35189 3.56201 5.99999 3.56201Z" fill="black"/>
  <path d="M11.9544 3.04558C11.9241 2.33165 11.8025 1.94428 11.7038 1.68605C11.5747 1.34428 11.4152 1.10126 11.157 0.843027C10.8987 0.584799 10.6557 0.425328 10.3139 0.296214C10.0557 0.19748 9.66837 0.0759476 8.95444 0.0455678C8.17976 0.00759309 7.95191 0 6.00001 0C4.04811 0 3.82026 0.00759309 3.04558 0.0455678C2.33165 0.0759476 1.94431 0.19748 1.68608 0.296214C1.34431 0.425328 1.10127 0.584799 0.843039 0.843027C0.584811 1.10126 0.425316 1.34428 0.296202 1.68605C0.197468 1.94428 0.0759592 2.33165 0.0455794 3.04558C0.00760468 3.82026 0 4.04808 0 5.99998C0 7.95188 0.00760468 8.17974 0.0455794 8.95442C0.0759592 9.66835 0.197468 10.0557 0.296202 10.3139C0.425316 10.6557 0.584811 10.8987 0.843039 11.157C1.10127 11.4152 1.34431 11.5747 1.68608 11.7038C1.94431 11.8025 2.33165 11.9241 3.04558 11.9544C3.81267 11.9924 4.04811 12 6.00001 12C7.95191 12 8.18735 11.9924 8.95444 11.9544C9.66837 11.9241 10.0557 11.8025 10.3139 11.7038C10.6557 11.5747 10.8987 11.4152 11.157 11.157C11.4152 10.8987 11.5747 10.6557 11.7038 10.3139C11.8025 10.0557 11.9241 9.66835 11.9544 8.95442C11.9924 8.17974 12 7.95188 12 5.99998C12 4.04808 11.9924 3.82026 11.9544 3.04558ZM6.00001 9.75188C3.92659 9.75188 2.24811 8.0734 2.24811 5.99998C2.24811 3.92656 3.92659 2.24807 6.00001 2.24807C8.07343 2.24807 9.75191 3.92656 9.75191 5.99998C9.75951 8.0734 8.07343 9.75188 6.00001 9.75188ZM9.90381 2.9772C9.41774 2.9772 9.0228 2.58229 9.0228 2.09621C9.0228 1.61014 9.41774 1.21517 9.90381 1.21517C10.3899 1.21517 10.7848 1.61014 10.7848 2.09621C10.7848 2.58229 10.3899 2.9772 9.90381 2.9772Z" fill="black"/>
</svg>